<?xml version="1.0" standalone="no"?>
<!DOCTYPE svg PUBLIC "-//W3C//DTD SVG 1.1//EN" "http://www.w3.org/Graphics/SVG/1.1/DTD/svg11.dtd" >
<svg xmlns="http://www.w3.org/2000/svg">
<metadata>
This is a custom SVG webfont generated by Font Squirrel.
Copyright   : Copyright c 1989 Adobe Systems Incorporated  All Rights ReservedAvenir is a registered trademark of Linotype AG andor its subsidiaries
</metadata>
<defs>
<font id="AvenirLight" horiz-adv-x="520" >
<font-face units-per-em="1000" ascent="800" descent="-200" />
<missing-glyph horiz-adv-x="260" />
<glyph unicode=" "  horiz-adv-x="260" />
<glyph unicode="&#x09;" horiz-adv-x="260" />
<glyph unicode="&#xa0;" horiz-adv-x="260" />
<glyph unicode="!" horiz-adv-x="370" d="M215 708v-522h-60v522h60zM137 42q0 20 14 34t34 14t34 -14t14 -34t-14 -34t-34 -14t-34 14t-14 34z" />
<glyph unicode="&#x22;" d="M161 480v228h60v-228h-60zM299 480v228h60v-228h-60z" />
<glyph unicode="#" d="M91 0l30 229h-108v48h115l22 156h-108v48h115l30 227h52l-31 -227h139l31 227h52l-31 -227h108v-48h-115l-21 -156h108v-48h-115l-30 -229h-52l30 229h-139l-30 -229h-52zM319 277l21 156h-138l-21 -156h138z" />
<glyph unicode="$" d="M281 314v-272q57 2 94.5 42.5t37.5 100.5q0 80 -89 113zM233 400v266q-50 -9 -84 -44q-36 -38 -36 -92q0 -88 103 -124zM233 -79v67q-56 0 -109 27q-57 28 -91 78l57 39q50 -85 143 -90v290l-71 26q-115 42 -115 168q0 79 60 136q54 51 126 58v67h48v-67q122 0 185 -89 l-55 -40q-48 75 -130 75v-282l70 -24q128 -44 128 -179q0 -82 -61 -137q-56 -51 -137 -56v-67h-48z" />
<glyph unicode="%" horiz-adv-x="815" d="M158 -6l456 748l46 -28l-457 -748zM38 548q0 71 50.5 121.5t121.5 50.5t121.5 -50.5t50.5 -121.5t-50.5 -121.5t-121.5 -50.5t-121.5 50.5t-50.5 121.5zM92 548q0 -50 34.5 -84t83.5 -34t83.5 34t34.5 84t-34.5 84t-83.5 34t-83.5 -34t-34.5 -84zM433 160 q0 71 50.5 121.5t121.5 50.5t121.5 -50.5t50.5 -121.5t-50.5 -121.5t-121.5 -50.5t-121.5 50.5t-50.5 121.5zM487 160q0 -50 34.5 -84t83.5 -34t83.5 34t34.5 84t-34.5 84t-83.5 34t-83.5 -34t-34.5 -84z" />
<glyph unicode="&#x26;" horiz-adv-x="704" d="M315 388l172 -182l102 184h68l-128 -226l161 -169h-89l-106 114q-94 -127 -220 -127q-92 0 -154 57t-62 149q0 73 50 127q31 32 112 82q-42 50 -58 78q-28 47 -28 90q0 74 54 119q50 42 124 42q65 0 112.5 -42t47.5 -108q0 -68 -49 -116q-30 -29 -109 -72zM308 666 q-45 0 -76 -28t-31 -72q0 -48 76 -137q61 31 86 54q44 39 44 88q0 42 -28 68.5t-71 26.5zM455 151l-196 204q-65 -39 -91 -65q-43 -44 -43 -100q0 -66 46 -107t114 -41q97 0 170 109z" />
<glyph unicode="'" horiz-adv-x="260" d="M100 480v228h60v-228h-60z" />
<glyph unicode="(" horiz-adv-x="260" d="M197 732l51 -32q-63 -79 -98 -195q-32 -108 -32 -217q0 -208 130 -414l-47 -30q-143 198 -143 444q0 250 139 444z" />
<glyph unicode=")" horiz-adv-x="260" d="M63 -156l-51 32q63 79 98 196q32 107 32 216q0 208 -130 414l47 30q143 -198 143 -444q0 -250 -139 -444z" />
<glyph unicode="*" horiz-adv-x="444" d="M247 708v-152l144 48l15 -48l-144 -47l91 -122l-37 -29l-94 125l-89 -125l-40 29l91 122l-146 50l14 45l147 -48v152h48z" />
<glyph unicode="+" horiz-adv-x="666" d="M78 279v48h231v231h48v-231h231v-48h-231v-231h-48v231h-231z" />
<glyph unicode="," horiz-adv-x="260" d="M50 -138l66 228h70l-77 -228h-59z" />
<glyph unicode="-" horiz-adv-x="333" d="M43 210v54h247v-54h-247z" />
<glyph unicode="." horiz-adv-x="260" d="M82 42q0 20 14 34t34 14t34 -14t14 -34t-14 -34t-34 -14t-34 14t-14 34z" />
<glyph unicode="/" horiz-adv-x="370" d="M9 -18l304 762l52 -18l-303 -762z" />
<glyph unicode="0" d="M26 354q0 150 42 241q59 125 192 125t192 -125q42 -91 42 -241t-42 -241q-59 -125 -192 -125t-192 125q-42 91 -42 241zM92 354q0 -312 168 -312t168 312t-168 312t-168 -312z" />
<glyph unicode="1" d="M261 0v624h-1l-128 -105l-37 46l175 143h51v-708h-60z" />
<glyph unicode="2" d="M41 0v70l266 281q48 51 68 81q33 52 33 102q0 60 -39.5 96t-101.5 36q-54 0 -92.5 -32t-49.5 -84l-70 7q17 80 74 121.5t141 41.5q85 0 144.5 -49t59.5 -132q0 -73 -46 -142q-26 -40 -100 -116l-221 -227h372v-54h-438z" />
<glyph unicode="3" d="M41 127l65 21q41 -106 149 -106q76 0 118 45q40 42 40 109q0 73 -60 112q-51 34 -127 34h-26v60h30q65 0 108 31q50 36 50 103q0 57 -36 93.5t-95 36.5q-90 0 -134 -83l-57 32q56 105 191 105q86 0 139 -45q58 -49 58 -137q0 -59 -33 -103.5t-93 -60.5v-2 q67 -12 109 -62.5t42 -118.5q0 -88 -55 -143q-59 -60 -164 -60q-165 0 -219 139z" />
<glyph unicode="4" d="M329 0v174h-306v71l283 463h83v-480h108v-54h-108v-174h-60zM329 228v414h-2l-250 -414h252z" />
<glyph unicode="5" d="M451 708v-54h-292l-3 -225q39 20 103 20q99 0 161 -69q59 -67 59 -165q0 -107 -74 -171q-65 -56 -152 -56q-149 0 -212 120l62 31q18 -41 60.5 -69t89.5 -28q57 0 104 42q56 49 56 127q0 77 -51.5 130.5t-126.5 53.5q-71 0 -140 -48l6 361h350z" />
<glyph unicode="6" d="M361 708l-193 -312h2q36 30 105 30q94 0 155.5 -63t61.5 -155q0 -96 -65.5 -158t-166.5 -62t-166.5 62t-65.5 158q0 73 65 181l192 319h76zM260 374q-69 0 -117.5 -48.5t-48.5 -117.5q0 -73 46.5 -119.5t119.5 -46.5q74 0 120 46.5t46 119.5q0 69 -48.5 117.5 t-117.5 48.5z" />
<glyph unicode="7" d="M443 708v-54l-282 -654h-67l287 654h-340v54h402z" />
<glyph unicode="8" d="M66 536q0 82 55 133t139 51t139 -51t55 -133q0 -51 -31.5 -96.5t-81.5 -59.5v-1q65 -14 103 -66q35 -50 35 -116q0 -94 -62 -151.5t-157 -57.5t-157 57.5t-62 151.5q0 66 36.5 117t101.5 65v1q-50 14 -81.5 59.5t-31.5 96.5zM132 536q0 -54 36 -92t92 -38t92 38t36 92 q0 58 -36.5 94t-91.5 36t-91.5 -36t-36.5 -94zM107 197q0 -65 42.5 -110t110.5 -45t110.5 45t42.5 110q0 69 -44 112t-109 43t-109 -43t-44 -112z" />
<glyph unicode="9" d="M159 0l193 312h-2q-36 -30 -105 -30q-94 0 -155.5 63t-61.5 155q0 96 65.5 158t166.5 62t166.5 -62t65.5 -158q0 -73 -65 -181l-192 -319h-76zM260 334q69 0 117.5 48.5t48.5 117.5q0 74 -46 120t-120 46q-73 0 -119.5 -46t-46.5 -120q0 -69 48.5 -117.5t117.5 -48.5z " />
<glyph unicode=":" horiz-adv-x="260" d="M82 420q0 20 14 34t34 14t34 -14t14 -34t-14 -34t-34 -14t-34 14t-14 34zM82 42q0 20 14 34t34 14t34 -14t14 -34t-14 -34t-34 -14t-34 14t-14 34z" />
<glyph unicode=";" horiz-adv-x="260" d="M50 -138l66 228h70l-77 -228h-59zM82 420q0 20 14 34t34 14t34 -14t14 -34t-14 -34t-34 -14t-34 14t-14 34z" />
<glyph unicode="&#x3c;" horiz-adv-x="666" d="M584 561v-50l-448 -208l448 -208v-50l-502 234v48z" />
<glyph unicode="=" horiz-adv-x="666" d="M78 351v48h510v-48h-510zM78 207v48h510v-48h-510z" />
<glyph unicode="&#x3e;" horiz-adv-x="666" d="M82 45v50l448 208l-448 208v50l502 -234v-48z" />
<glyph unicode="?" horiz-adv-x="463" d="M204 186v84q0 55 40 103l76 76q40 47 40 102q0 54 -31.5 87.5t-85.5 33.5q-51 0 -85.5 -31.5t-45.5 -84.5l-65 8q13 75 66.5 118.5t128.5 43.5q81 0 132.5 -46t51.5 -126q0 -71 -42 -122l-78 -78q-42 -46 -42 -104v-64h-60zM187 42q0 20 14 34t34 14t34 -14t14 -34 t-14 -34t-34 -14t-34 14t-14 34z" />
<glyph unicode="@" horiz-adv-x="800" d="M254 280q0 -42 23 -68.5t61 -26.5q66 0 120 81q49 74 49 146q0 102 -81 102q-71 0 -124 -81q-48 -74 -48 -153zM622 549l-97 -290q-11 -33 -11 -48q0 -26 26 -26q53 0 107.5 79t54.5 162q0 109 -87 182q-83 70 -199 70q-134 0 -226 -96.5t-92 -226.5q0 -134 94 -229.5 t226 -95.5q74 0 144.5 37t109.5 95h58q-45 -82 -131 -131t-181 -49q-161 0 -267.5 108t-106.5 265q0 156 107.5 263.5t262.5 107.5q146 0 244 -86t98 -214q0 -121 -75 -210q-71 -85 -159 -85q-62 0 -62 67h-2q-55 -67 -129 -67q-65 0 -101 44q-34 40 -34 103q0 112 63 197 q69 93 173 93q82 0 106 -83h2l24 64h60z" />
<glyph unicode="A" horiz-adv-x="685" d="M5 0l309 708h68l298 -708h-74l-77 188h-375l-80 -188h-69zM505 248l-160 388l-165 -388h325z" />
<glyph unicode="B" horiz-adv-x="630" d="M97 0v708h204q228 0 228 -187q0 -56 -32 -94q-34 -41 -95 -53v-2q70 -5 114 -52.5t44 -121.5q0 -109 -82 -160q-62 -38 -155 -38h-226zM163 648v-246h137q91 0 133 43q30 31 30 76q0 127 -154 127h-146zM163 342v-282h151q103 0 148 49q32 35 32 87q0 73 -53 112 q-47 34 -117 34h-161z" />
<glyph unicode="C" horiz-adv-x="704" d="M626 152l54 -41q-94 -129 -263 -129q-161 0 -263.5 104.5t-102.5 267.5t102.5 267.5t263.5 104.5q157 0 244 -111l-54 -45q-64 96 -190 96q-136 0 -218 -88.5t-82 -223.5t81 -222q83 -90 219 -90q58 0 112 27q62 29 97 83z" />
<glyph unicode="D" horiz-adv-x="741" d="M88 0v708h219q234 0 330 -157q53 -89 53 -197t-53 -196q-96 -158 -330 -158h-219zM154 648v-588h136q149 0 238 71q96 77 96 223t-96 223q-89 71 -238 71h-136z" />
<glyph unicode="E" horiz-adv-x="593" d="M97 0v708h433v-60h-367v-252h344v-60h-344v-276h383v-60h-449z" />
<glyph unicode="F" horiz-adv-x="556" d="M97 0v708h424v-60h-358v-252h333v-60h-333v-336h-66z" />
<glyph unicode="G" horiz-adv-x="778" d="M681 382v-336q-112 -64 -264 -64q-161 0 -263.5 104.5t-102.5 267.5t102.5 267.5t263.5 104.5q158 0 255 -98l-48 -50q-32 39 -90.5 63.5t-116.5 24.5q-136 0 -218 -88.5t-82 -223.5t81 -222q83 -90 219 -90q127 0 198 42v238h-170v60h236z" />
<glyph unicode="H" horiz-adv-x="722" d="M97 0v708h66v-312h396v312h66v-708h-66v336h-396v-336h-66z" />
<glyph unicode="I" horiz-adv-x="260" d="M97 0v708h66v-708h-66z" />
<glyph unicode="J" horiz-adv-x="482" d="M385 708v-500q0 -94 -28 -145q-46 -81 -166 -81q-151 0 -184 145l66 12q24 -97 118 -97q128 0 128 150v516h66z" />
<glyph unicode="K" horiz-adv-x="611" d="M97 0v708h66v-312h6l343 312h91l-358 -324l378 -384h-95l-359 366h-6v-366h-66z" />
<glyph unicode="L" horiz-adv-x="500" d="M97 0v708h66v-648h330v-60h-396z" />
<glyph unicode="M" horiz-adv-x="889" d="M90 0v708h99l258 -594l258 594h94v-708h-66v624h-2l-270 -624h-29l-274 624h-2v-624h-66z" />
<glyph unicode="N" horiz-adv-x="778" d="M97 0v708h85l431 -620h2v620h66v-708h-85l-431 620h-2v-620h-66z" />
<glyph unicode="O" horiz-adv-x="834" d="M51 354q0 163 102.5 267.5t263.5 104.5t263.5 -104.5t102.5 -267.5t-102.5 -267.5t-263.5 -104.5t-263.5 104.5t-102.5 267.5zM117 354q0 -135 81 -222q83 -90 219 -90t219 90q81 87 81 222t-82 223.5t-218 88.5t-218 -88.5t-82 -223.5z" />
<glyph unicode="P" horiz-adv-x="574" d="M97 0v708h204q92 0 152 -38q76 -49 76 -149q0 -91 -65 -140q-58 -45 -148 -45h-153v-336h-66zM163 648v-252h150q64 0 103 28q47 32 47 97q0 64 -48 98q-42 29 -106 29h-146z" />
<glyph unicode="Q" horiz-adv-x="834" d="M813 60v-60h-390q-152 0 -260 100q-112 104 -112 263q0 157 97 258q101 105 262 105t262 -105q97 -101 97 -258q0 -97 -47 -181q-50 -90 -130 -120v-2h221zM117 363q0 -127 86 -215t218 -88q130 0 209 93q73 85 73 210q0 132 -77 216q-81 87 -216 87t-214 -85.5 t-79 -217.5z" />
<glyph unicode="R" horiz-adv-x="593" d="M163 648v-252h140q93 0 135 45q31 32 31 81t-31 81q-42 45 -135 45h-140zM97 0v708h186q252 0 252 -186q0 -159 -181 -182l206 -340h-75l-199 336h-123v-336h-66z" />
<glyph unicode="S" horiz-adv-x="556" d="M53 89l63 42q53 -89 162 -89q68 0 113.5 38t45.5 101q0 81 -95 119l-175 65q-95 53 -95 167q0 90 69 144q63 50 158 50q125 0 193 -89l-57 -41q-50 70 -138 70q-68 0 -111 -33q-48 -37 -48 -101q0 -87 95 -127l175 -62q95 -50 95 -162q0 -92 -67 -147q-62 -52 -153 -52 q-154 0 -230 107z" />
<glyph unicode="T" horiz-adv-x="574" d="M254 0v648h-242v60h550v-60h-242v-648h-66z" />
<glyph unicode="U" horiz-adv-x="684" d="M600 708v-437q0 -126 -57 -201q-66 -88 -201 -88t-201 88q-57 75 -57 201v437h66v-420q0 -246 192 -246t192 246v420h66z" />
<glyph unicode="V" horiz-adv-x="593" d="M261 0l-264 708h71l228 -621l230 621h70l-269 -708h-66z" />
<glyph unicode="W" horiz-adv-x="944" d="M211 0l-206 708h68l176 -627h2l179 627h84l179 -627h2l176 627h68l-206 -708h-81l-179 630h-2l-179 -630h-81z" />
<glyph unicode="X" horiz-adv-x="611" d="M1 0l266 372l-242 336h78l204 -288l201 288h79l-240 -336l263 -372h-82l-224 320l-224 -320h-79z" />
<glyph unicode="Y" horiz-adv-x="574" d="M254 0v305l-260 403h79l214 -336l219 336h74l-260 -403v-305h-66z" />
<glyph unicode="Z" horiz-adv-x="556" d="M23 0v52l414 596h-408v60h493v-54l-417 -594h428v-60h-510z" />
<glyph unicode="[" horiz-adv-x="260" d="M224 732v-48h-90v-792h90v-48h-150v888h150z" />
<glyph unicode="\" horiz-adv-x="370" d="M57 744l304 -762l-53 -18l-303 762z" />
<glyph unicode="]" horiz-adv-x="260" d="M36 -156v48h90v792h-90v48h150v-888h-150z" />
<glyph unicode="^" horiz-adv-x="666" d="M82 256l228 452h46l228 -452h-56l-195 398l-194 -398h-57z" />
<glyph unicode="_" horiz-adv-x="500" d="M0 -125v50h500v-50h-500z" />
<glyph unicode="`" horiz-adv-x="240" d="M74 708l104 -144h-50l-134 144h80z" />
<glyph unicode="a" horiz-adv-x="519" d="M439 307v-113q0 -126 9 -194h-56q-6 35 -6 75h-2q-50 -87 -162 -87q-67 0 -111 32q-52 37 -52 105q0 155 256 155h70v28q0 112 -130 112q-80 0 -141 -52l-35 41q68 65 176 65q184 0 184 -167zM385 232h-66q-85 0 -137 -22q-63 -27 -63 -82q0 -40 34 -64q30 -22 71 -22 q161 0 161 159v31z" />
<glyph unicode="b" horiz-adv-x="611" d="M67 0v756h60v-375h2q26 45 81 71q48 22 104 22q106 0 174.5 -68.5t68.5 -174.5t-68.5 -174.5t-174.5 -68.5q-56 0 -104 23q-55 25 -81 70h-2v-81h-60zM121 231q0 -78 56 -133.5t137 -55.5q83 0 134 56q49 53 49 133t-50 134.5t-133 54.5q-81 0 -137 -55.5t-56 -133.5z " />
<glyph unicode="c" horiz-adv-x="481" d="M421 106l46 -38q-67 -80 -170 -80q-106 0 -174.5 68.5t-68.5 174.5t68.5 174.5t174.5 68.5q101 0 172 -80l-48 -36q-57 62 -124 62q-83 0 -133 -54.5t-50 -134.5t49 -133q51 -56 134 -56q72 0 124 64z" />
<glyph unicode="d" horiz-adv-x="611" d="M484 0v81h-2q-26 -45 -80 -70q-49 -23 -105 -23q-106 0 -174.5 68.5t-68.5 174.5t68.5 174.5t174.5 68.5q56 0 105 -22q54 -26 80 -71h2v375h60v-756h-60zM490 231q0 78 -56 133.5t-137 55.5q-83 0 -133 -54.5t-50 -134.5t49 -133q51 -56 134 -56q81 0 137 55.5t56 133.5 z" />
<glyph unicode="e" horiz-adv-x="556" d="M444 124l44 -37q-66 -99 -200 -99q-105 0 -169.5 68t-64.5 176q0 104 65 173t166 69t162 -68q55 -61 55 -148v-42h-388q0 -56 35 -106q48 -68 140 -68q46 0 89.5 22.5t65.5 59.5zM114 270h328q0 62 -47 106t-113 44q-84 0 -133 -66q-35 -47 -35 -84z" />
<glyph unicode="f" horiz-adv-x="296" d="M114 0v408h-96v54h96v151q0 81 47 122q37 33 91 33q42 0 69 -12l-12 -52q-20 10 -54 10q-81 0 -81 -123v-129h108v-54h-108v-408h-60z" />
<glyph unicode="g" horiz-adv-x="611" d="M544 462v-432q0 -153 -88 -221q-62 -49 -158 -49q-70 0 -132 26t-97 71l47 44q62 -87 182 -87q186 0 186 212v64h-2q-57 -90 -175 -90q-102 0 -174.5 69.5t-72.5 167.5t72.5 167.5t174.5 69.5q118 0 175 -90h2v78h60zM486 237q0 76 -53.5 129.5t-129.5 53.5t-129.5 -53.5 t-53.5 -129.5t53.5 -129.5t129.5 -53.5t129.5 53.5t53.5 129.5z" />
<glyph unicode="h" horiz-adv-x="556" d="M80 0v756h60v-375h2q19 40 61.5 66.5t96.5 26.5q176 0 176 -199v-275h-60v272q0 148 -116 148q-70 0 -113 -47q-47 -51 -47 -142v-231h-60z" />
<glyph unicode="i" horiz-adv-x="240" d="M90 0v462h60v-462h-60zM75 645q0 19 13 32t32 13t32 -13t13 -32t-13 -32t-32 -13t-32 13t-13 32z" />
<glyph unicode="j" horiz-adv-x="240" d="M150 462v-543q0 -78 -26 -115q-31 -44 -106 -44q-24 0 -48 9l9 53q21 -8 38 -8q44 0 61 31q12 22 12 69v548h60zM75 645q0 19 13 32t32 13t32 -13t13 -32t-13 -32t-32 -13t-32 13t-13 32z" />
<glyph unicode="k" horiz-adv-x="481" d="M80 0v756h60v-504l228 209h88l-238 -211l266 -250h-91l-253 244v-244h-60z" />
<glyph unicode="l" horiz-adv-x="240" d="M90 0v756h60v-756h-60z" />
<glyph unicode="m" horiz-adv-x="852" d="M80 0v332q0 18 -2.5 68.5t-2.5 61.5h60q1 -36 4 -81h3q19 40 61.5 66.5t96.5 26.5q108 0 139 -100q42 100 157 100q176 0 176 -199v-275h-60v272q0 148 -116 148q-75 0 -112 -55q-28 -43 -28 -105v-260h-60v278q0 142 -96 142q-70 0 -113 -47q-47 -51 -47 -142v-231h-60z " />
<glyph unicode="n" horiz-adv-x="556" d="M80 0v332q0 18 -2.5 68.5t-2.5 61.5h60q1 -36 4 -81h3q19 40 61.5 66.5t96.5 26.5q176 0 176 -199v-275h-60v272q0 148 -116 148q-70 0 -113 -47q-47 -51 -47 -142v-231h-60z" />
<glyph unicode="o" horiz-adv-x="594" d="M54 231q0 106 68.5 174.5t174.5 68.5t174.5 -68.5t68.5 -174.5t-68.5 -174.5t-174.5 -68.5t-174.5 68.5t-68.5 174.5zM114 231q0 -80 49 -133q51 -56 134 -56t134 56q49 53 49 133t-50 134.5t-133 54.5t-133 -54.5t-50 -134.5z" />
<glyph unicode="p" horiz-adv-x="611" d="M67 -228v690h60v-81h2q26 45 81 71q48 22 104 22q106 0 174.5 -68.5t68.5 -174.5t-68.5 -174.5t-174.5 -68.5q-56 0 -104 23q-55 25 -81 70h-2v-309h-60zM121 231q0 -78 56 -133.5t137 -55.5q83 0 134 56q49 53 49 133t-50 134.5t-133 54.5q-81 0 -137 -55.5t-56 -133.5z " />
<glyph unicode="q" horiz-adv-x="611" d="M484 -228v309h-2q-26 -45 -80 -70q-49 -23 -105 -23q-106 0 -174.5 68.5t-68.5 174.5t68.5 174.5t174.5 68.5q56 0 105 -22q54 -26 80 -71h2v81h60v-690h-60zM490 231q0 78 -56 133.5t-137 55.5q-83 0 -133 -54.5t-50 -134.5t49 -133q51 -56 134 -56q81 0 137 55.5 t56 133.5z" />
<glyph unicode="r" horiz-adv-x="333" d="M80 0v332q0 18 -2.5 68.5t-2.5 61.5h60q1 -36 4 -81q52 93 147 93q15 0 35 -5l-7 -59q-12 4 -23 4q-75 0 -114 -47q-37 -43 -37 -115v-252h-60z" />
<glyph unicode="s" horiz-adv-x="426" d="M28 82l53 36q18 -36 55 -56t79 -20t74 23.5t32 61.5q0 52 -71 73l-132 36q-71 30 -71 105q0 63 51 100q44 33 107 33q119 0 163 -87l-54 -32q-36 65 -109 65q-36 0 -65 -19q-33 -21 -33 -55q0 -50 71 -70l132 -34q71 -31 71 -111q0 -68 -48.5 -105.5t-118.5 -37.5 q-133 0 -186 94z" />
<glyph unicode="t" horiz-adv-x="333" d="M306 462v-54h-132v-301q0 -65 64 -65q31 0 68 16l5 -54q-44 -16 -78 -16q-119 0 -119 119v301h-100v54h100v133h60v-133h132z" />
<glyph unicode="u" horiz-adv-x="556" d="M471 462v-332q0 -18 2.5 -68.5t2.5 -61.5h-60q-1 36 -4 81h-3q-19 -40 -60 -66q-44 -27 -98 -27q-176 0 -176 199v275h60v-272q0 -148 116 -148q70 0 113 47q47 51 47 142v231h60z" />
<glyph unicode="v" horiz-adv-x="463" d="M204 0l-189 462h68l154 -397l150 397h61l-182 -462h-62z" />
<glyph unicode="w" horiz-adv-x="704" d="M160 0l-145 462h66l112 -387h2l129 387h57l137 -387h2l109 387h60l-136 -462h-62l-138 378h-2l-129 -378h-62z" />
<glyph unicode="x" horiz-adv-x="481" d="M6 0l192 250l-165 212h77l128 -175l127 175h75l-163 -212l198 -250h-78l-161 209l-158 -209h-72z" />
<glyph unicode="y" horiz-adv-x="463" d="M448 462l-238 -605q-38 -97 -127 -97q-25 0 -59 9l6 56q37 -11 54 -11q47 0 77 77l42 107l-188 464h67l153 -389l149 389h64z" />
<glyph unicode="z" horiz-adv-x="426" d="M27 0v36l277 372h-263v54h346v-36l-276 -372h288v-54h-372z" />
<glyph unicode="{" horiz-adv-x="333" d="M274 732v-48h-23q-55 0 -55 -98v-141q0 -67 -30 -115q-20 -32 -40 -41v-2q21 -11 40 -42q30 -47 30 -114v-142q0 -97 55 -97h23v-48h-50q-42 0 -65 32.5t-23 88.5v146q0 153 -70 153v48q70 0 70 154v145q0 57 23 89t65 32h50z" />
<glyph unicode="|" horiz-adv-x="222" d="M87 -18v774h48v-774h-48z" />
<glyph unicode="}" horiz-adv-x="333" d="M59 -156v48h23q55 0 55 98v141q0 67 30 115q20 32 40 41v2q-21 11 -40 42q-30 47 -30 114v142q0 97 -55 97h-23v48h50q42 0 65 -32.5t23 -88.5v-146q0 -153 70 -153v-48q-70 0 -70 -154v-145q0 -57 -23 -89t-65 -32h-50z" />
<glyph unicode="~" horiz-adv-x="666" d="M529 364v0l34 -32q-43 -90 -125 -90q-33 0 -115 36q-73 32 -98 32q-43 0 -88 -68l-34 32q47 90 125 90q33 0 115 -36q73 -32 98 -32q43 0 88 68z" />
<glyph unicode="&#xa1;" horiz-adv-x="370" d="M155 -222v522h60v-522h-60zM233 444q0 -20 -14 -34t-34 -14t-34 14t-14 34t14 34t34 14t34 -14t14 -34z" />
<glyph unicode="&#xa2;" d="M256 47v370q-67 -10 -105.5 -62.5t-38.5 -121.5q0 -67 39.5 -120t104.5 -66zM304 418v-376q67 3 116 64l46 -38q-63 -77 -162 -80v-69h-48v72q-91 13 -147.5 80.5t-56.5 161.5q0 93 57 159t147 79v72h48v-71q95 -1 164 -78l-48 -36q-50 55 -116 60z" />
<glyph unicode="&#xa3;" d="M58 0v54h105v288h-95v54h95v117q0 80 47 137q57 70 163 70q79 0 143 -56l-40 -48q-50 50 -106 50q-69 0 -108 -50q-33 -42 -33 -96v-124h165v-54h-165v-288h245v-54h-416z" />
<glyph unicode="&#xa4;" d="M14 142l57 55q-60 65 -60 157t60 157l-57 55l34 37l57 -56q69 53 155 53t155 -53l57 56l34 -37l-57 -55q60 -65 60 -157t-60 -157l57 -55l-34 -37l-57 56q-69 -53 -155 -53t-155 53l-57 -56zM71 354q0 -79 56 -135.5t133 -56.5t133 56.5t56 135.5q0 80 -55.5 136 t-133.5 56t-133.5 -56t-55.5 -136z" />
<glyph unicode="&#xa5;" d="M227 0v180h-170v48h170v77l-9 16h-161v48h134l-191 339h68l192 -344l195 344h65l-191 -339h134v-48h-161l-9 -16v-77h170v-48h-170v-180h-66z" />
<glyph unicode="&#xa6;" horiz-adv-x="222" d="M87 -18v289h48v-289h-48zM87 467v289h48v-289h-48z" />
<glyph unicode="&#xa7;" d="M212 227l102 -52q76 40 76 96q0 58 -74 98l-75 41q-97 -32 -97 -95q0 -34 20 -56q14 -14 48 -32zM64 -24l61 30q34 -90 130 -90q49 0 83 24q38 28 38 73q0 55 -77 96l-144 74q-77 51 -77 130q0 84 106 129q-82 50 -82 127q0 73 59 117q52 40 127 40q124 0 160 -94 l-58 -34q-29 68 -105 68q-48 0 -81 -24q-36 -27 -36 -73q0 -52 75 -93l138 -72q75 -50 75 -126q0 -83 -89 -132q75 -44 75 -123q0 -77 -57 -124q-53 -43 -129 -43q-66 0 -115 29q-54 31 -77 91z" />
<glyph unicode="&#xa8;" horiz-adv-x="240" d="M-23 652q0 20 14 34t34 14t34 -14t14 -34t-14 -34t-34 -14t-34 14t-14 34zM167 652q0 20 14 34t34 14t34 -14t14 -34t-14 -34t-34 -14t-34 14t-14 34z" />
<glyph unicode="&#xa9;" horiz-adv-x="800" d="M594 431h-54q-10 44 -42 72q-36 32 -88 32q-74 0 -119 -54q-42 -50 -42 -127t42 -127q45 -54 119 -54q52 0 89 31q33 29 41 73h54q-9 -72 -60.5 -112t-124.5 -40q-100 0 -157 64t-57 165t57 165t157 64q73 0 124.5 -40t60.5 -112zM28 354q0 154 109 263t263 109t263 -109 t109 -263t-109 -263t-263 -109t-263 109t-109 263zM82 354q0 -132 93 -225t225 -93t225 93t93 225t-93 225t-225 93t-225 -93t-93 -225z" />
<glyph unicode="&#xaa;" horiz-adv-x="337" d="M186 602h64v9q0 67 -83 67q-51 0 -94 -35l-26 38q48 39 131 39q61 0 90.5 -25t29.5 -84v-80q0 -69 5 -101h-49q-2 6 -4 46h-2q-32 -52 -104 -52q-47 0 -76 19q-34 21 -34 62q0 97 152 97zM250 560h-38q-130 0 -130 -53q0 -17 22 -29t50 -12q48 0 74 30q22 25 22 57v7z " />
<glyph unicode="&#xab;" horiz-adv-x="481" d="M200 34l-137 203l137 203l42 -29l-116 -174l118 -176zM366 34l-137 203l137 203l42 -29l-116 -174l118 -176z" />
<glyph unicode="&#xac;" horiz-adv-x="666" d="M540 134v217h-462v48h510v-265h-48z" />
<glyph unicode="&#xad;" horiz-adv-x="666" d="M78 279v48h510v-48h-510z" />
<glyph unicode="&#x2212;" horiz-adv-x="666" d="M78 279v48h510v-48h-510z" />
<glyph unicode="&#xae;" horiz-adv-x="800" d="M319 329v-188h-54v429h165q135 0 135 -119q0 -103 -108 -122l128 -188h-61l-128 188h-77zM319 522v-145h69q58 0 84 10q39 17 39 64q0 71 -96 71h-96zM28 354q0 154 109 263t263 109t263 -109t109 -263t-109 -263t-263 -109t-263 109t-109 263zM82 354q0 -132 93 -225 t225 -93t225 93t93 225t-93 225t-225 93t-225 -93t-93 -225z" />
<glyph unicode="&#xaf;" horiz-adv-x="240" d="M252 654v-48h-264v48h264z" />
<glyph unicode="&#x2c9;" horiz-adv-x="240" d="M252 654v-48h-264v48h264z" />
<glyph unicode="&#xb0;" horiz-adv-x="400" d="M200 432q-60 0 -102 42t-42 103q0 60 42 101.5t102 41.5t102 -41.5t42 -101.5q0 -61 -42 -103t-102 -42zM200 480q40 0 68 28t28 68t-28 68t-68 28t-68 -28t-28 -68t28 -68t68 -28z" />
<glyph unicode="&#xb1;" horiz-adv-x="666" d="M78 327v48h228v183h48v-183h234v-48h-234v-183h-48v183h-228zM82 48v48h502v-48h-502z" />
<glyph unicode="&#xb2;" horiz-adv-x="338" d="M23 289v43l172 168q34 34 46 50q19 28 19 59q0 28 -22.5 45.5t-61.5 17.5q-66 0 -86 -59l-51 4q12 53 57 80q37 23 82 23q59 0 97.5 -29.5t38.5 -79.5q0 -43 -28 -84q-18 -25 -64 -69l-127 -121h220v-48h-292z" />
<glyph unicode="&#xb3;" horiz-adv-x="338" d="M127 488v48h23q37 0 63 17q32 20 32 58q0 26 -21 43.5t-56 17.5q-58 0 -88 -50l-39 25q46 73 127 73q56 0 93.5 -30t37.5 -78q0 -34 -23 -60.5t-59 -38.5v-2q43 -6 68.5 -36t25.5 -71q0 -55 -41 -88t-104 -33q-105 0 -139 89l47 18q23 -59 92 -59q34 0 62.5 23t28.5 53 q0 81 -113 81h-17z" />
<glyph unicode="&#xb4;" horiz-adv-x="240" d="M62 564l104 144h80l-134 -144h-50z" />
<glyph unicode="&#xb5;" horiz-adv-x="556" d="M471 462v-332q0 -18 2.5 -68.5t2.5 -61.5h-60q-1 36 -4 81h-3q-19 -40 -60 -66q-44 -27 -98 -27q-74 0 -117 38v-254h-59v690h60v-272q0 -148 116 -148q70 0 113 47q47 51 47 142v231h60z" />
<glyph unicode="&#x3bc;" horiz-adv-x="556" d="M471 462v-332q0 -18 2.5 -68.5t2.5 -61.5h-60q-1 36 -4 81h-3q-19 -40 -60 -66q-44 -27 -98 -27q-74 0 -117 38v-254h-59v690h60v-272q0 -148 116 -148q70 0 113 47q47 51 47 142v231h60z" />
<glyph unicode="&#xb6;" horiz-adv-x="600" d="M267 -126v449q-87 0 -147 55.5t-60 133.5q0 94 58.5 145t164.5 51h227v-834h-60v786h-123v-786h-60z" />
<glyph unicode="&#xb7;" horiz-adv-x="260" d="M82 318q0 20 14 34t34 14t34 -14t14 -34t-14 -34t-34 -14t-34 14t-14 34z" />
<glyph unicode="&#x2219;" horiz-adv-x="260" d="M82 318q0 20 14 34t34 14t34 -14t14 -34t-14 -34t-34 -14t-34 14t-14 34z" />
<glyph unicode="&#xb8;" horiz-adv-x="240" d="M171 0l-47 -64l2 -2q13 7 31 7q35 0 59 -19t24 -53q0 -42 -36 -65q-32 -20 -76 -20q-50 0 -95 21l14 32q33 -17 76 -17q23 0 41 10q22 12 22 33q0 42 -56 42q-23 0 -44 -8l-16 15l63 88h38z" />
<glyph unicode="&#xb9;" horiz-adv-x="338" d="M177 289v371l-85 -66l-25 34l110 86h54v-425h-54z" />
<glyph unicode="&#xba;" horiz-adv-x="386" d="M34 572q0 66 43.5 107t114.5 41q70 0 115 -40.5t45 -107.5q0 -65 -45.5 -106.5t-114.5 -41.5q-71 0 -114.5 41t-43.5 107zM82 572q0 -43 31 -74.5t79 -31.5t80 31t32 75q0 46 -31 76t-81 30q-47 0 -78.5 -31.5t-31.5 -74.5z" />
<glyph unicode="&#xbb;" horiz-adv-x="481" d="M115 440l137 -203l-137 -203l-42 29l116 174l-118 176zM281 440l137 -203l-137 -203l-42 29l116 174l-118 176z" />
<glyph unicode="&#xbc;" horiz-adv-x="778" d="M146 289v371l-85 -66l-25 34l110 86h54v-425h-54zM115 -6l456 748l46 -28l-457 -748zM624 0v102h-190v45l185 277h59v-274h64v-48h-64v-102h-54zM624 150v202h-2l-134 -202h136z" />
<glyph unicode="&#xbd;" horiz-adv-x="778" d="M138 289v371l-85 -66l-25 34l110 86h54v-425h-54zM106 -6l456 748l46 -28l-457 -748zM458 0v43l172 168q34 34 46 50q19 28 19 59q0 28 -22.5 45.5t-61.5 17.5q-66 0 -86 -59l-51 4q12 53 57 80q37 23 82 23q59 0 97.5 -29.5t38.5 -79.5q0 -43 -28 -84q-18 -25 -64 -69 l-127 -121h220v-48h-292z" />
<glyph unicode="&#xbe;" horiz-adv-x="778" d="M121 488v48h23q37 0 63 17q32 20 32 58q0 26 -21 43.5t-56 17.5q-58 0 -88 -50l-39 25q46 73 127 73q56 0 93.5 -30t37.5 -78q0 -34 -23 -60.5t-59 -38.5v-2q43 -6 68.5 -36t25.5 -71q0 -55 -41 -88t-104 -33q-105 0 -140 89l48 18q23 -59 92 -59q34 0 62.5 23t28.5 53 q0 81 -113 81h-17zM166 -6l456 748l46 -28l-457 -748zM640 0v102h-190v45l185 277h59v-274h64v-48h-64v-102h-54zM638 150v202h-2l-134 -202h136z" />
<glyph unicode="&#xbf;" horiz-adv-x="463" d="M259 300v-84q0 -55 -40 -103l-76 -76q-40 -47 -40 -102q0 -54 31.5 -87.5t85.5 -33.5q51 0 87 32q33 31 44 84l65 -8q-13 -75 -66.5 -118.5t-128.5 -43.5q-81 0 -131 45q-53 47 -53 127q0 71 42 122l78 78q42 46 42 104v64h60zM276 444q0 -20 -14 -34t-34 -14t-34 14 t-14 34t14 34t34 14t34 -14t14 -34z" />
<glyph unicode="&#xc0;" horiz-adv-x="685" d="M5 0l309 708h68l298 -708h-74l-77 188h-375l-80 -188h-69zM505 248l-160 388l-165 -388h325zM297 896l104 -144h-50l-134 144h80z" />
<glyph unicode="&#xc1;" horiz-adv-x="685" d="M5 0l309 708h68l298 -708h-74l-77 188h-375l-80 -188h-69zM505 248l-160 388l-165 -388h325zM285 752l104 144h80l-134 -144h-50z" />
<glyph unicode="&#xc2;" horiz-adv-x="685" d="M5 0l309 708h68l298 -708h-74l-77 188h-375l-80 -188h-69zM505 248l-160 388l-165 -388h325zM200 752l108 144h70l108 -144h-65l-81 108l-81 -108h-59z" />
<glyph unicode="&#xc3;" horiz-adv-x="685" d="M5 0l309 708h68l298 -708h-74l-77 188h-375l-80 -188h-69zM505 248l-160 388l-165 -388h325zM223 769v0h-36q5 39 27 68q26 34 63 34q27 0 73 -24t65 -24q38 0 48 48h36q-5 -42 -24 -69q-23 -33 -60 -33q-26 0 -74.5 24t-66.5 24q-39 0 -51 -48z" />
<glyph unicode="&#xc4;" horiz-adv-x="685" d="M5 0l309 708h68l298 -708h-74l-77 188h-375l-80 -188h-69zM505 248l-160 388l-165 -388h325zM200 840q0 20 14 34t34 14t34 -14t14 -34t-14 -34t-34 -14t-34 14t-14 34zM390 840q0 20 14 34t34 14t34 -14t14 -34t-14 -34t-34 -14t-34 14t-14 34z" />
<glyph unicode="&#xc5;" horiz-adv-x="685" d="M5 0l309 708h68l298 -708h-74l-77 188h-375l-80 -188h-69zM505 248l-160 388l-165 -388h325zM250 837q0 39 27.5 67t66.5 28q38 0 65 -29t27 -67q0 -37 -27 -65.5t-65 -28.5q-39 0 -66.5 28t-27.5 67zM400 837q0 25 -16 42t-41 17q-24 0 -40.5 -17.5t-16.5 -42.5 t16.5 -41.5t40.5 -16.5q25 0 41 17t16 42z" />
<glyph unicode="&#xc6;" horiz-adv-x="926" d="M-5 0l461 708h403v-60h-293v-252h276v-60h-276v-276h301v-60h-367v188h-312l-123 -188h-70zM500 248v400h-12l-261 -400h273z" />
<glyph unicode="&#xc7;" horiz-adv-x="704" d="M626 152l54 -41q-94 -129 -263 -129q-161 0 -263.5 104.5t-102.5 267.5t102.5 267.5t263.5 104.5q157 0 244 -111l-54 -45q-64 96 -190 96q-136 0 -218 -88.5t-82 -223.5t81 -222q83 -90 219 -90q58 0 112 27q62 29 97 83zM403 0l-47 -64l2 -2q13 7 31 7q35 0 59 -19 t24 -53q0 -42 -36 -65q-32 -20 -76 -20q-50 0 -95 21l14 32q33 -17 76 -17q23 0 41 10q22 12 22 33q0 42 -56 42q-23 0 -44 -8l-16 15l63 88h38z" />
<glyph unicode="&#xc8;" horiz-adv-x="593" d="M97 0v708h433v-60h-367v-252h344v-60h-344v-276h383v-60h-449zM251 896l104 -144h-50l-134 144h80z" />
<glyph unicode="&#xc9;" horiz-adv-x="593" d="M97 0v708h433v-60h-367v-252h344v-60h-344v-276h383v-60h-449zM239 752l104 144h80l-134 -144h-50z" />
<glyph unicode="&#xca;" horiz-adv-x="593" d="M97 0v708h433v-60h-367v-252h344v-60h-344v-276h383v-60h-449zM154 752l108 144h70l108 -144h-65l-81 108l-81 -108h-59z" />
<glyph unicode="&#xcb;" horiz-adv-x="593" d="M97 0v708h433v-60h-367v-252h344v-60h-344v-276h383v-60h-449zM154 840q0 20 14 34t34 14t34 -14t14 -34t-14 -34t-34 -14t-34 14t-14 34zM344 840q0 20 14 34t34 14t34 -14t14 -34t-14 -34t-34 -14t-34 14t-14 34z" />
<glyph unicode="&#xcc;" horiz-adv-x="260" d="M97 0v708h66v-708h-66zM84 896l104 -144h-50l-134 144h80z" />
<glyph unicode="&#xcd;" horiz-adv-x="260" d="M97 0v708h66v-708h-66zM72 752l104 144h80l-134 -144h-50z" />
<glyph unicode="&#xce;" horiz-adv-x="260" d="M97 0v708h66v-708h-66zM-13 752l108 144h70l108 -144h-65l-81 108l-81 -108h-59z" />
<glyph unicode="&#xcf;" horiz-adv-x="260" d="M97 0v708h66v-708h-66zM-13 840q0 20 14 34t34 14t34 -14t14 -34t-14 -34t-34 -14t-34 14t-14 34zM177 840q0 20 14 34t34 14t34 -14t14 -34t-14 -34t-34 -14t-34 14t-14 34z" />
<glyph unicode="&#xd0;" horiz-adv-x="741" d="M154 648v-252h258v-54h-258v-282h136q149 0 238 71q96 77 96 223t-96 223q-89 71 -238 71h-136zM88 0v342h-78v54h78v312h219q234 0 330 -157q53 -89 53 -197t-53 -196q-96 -158 -330 -158h-219z" />
<glyph unicode="&#xd1;" horiz-adv-x="778" d="M97 0v708h85l431 -620h2v620h66v-708h-85l-431 620h-2v-620h-66zM269 769v0h-36q5 39 27 68q26 34 63 34q27 0 73 -24t65 -24q38 0 48 48h36q-5 -42 -24 -69q-23 -33 -60 -33q-26 0 -74.5 24t-66.5 24q-39 0 -51 -48z" />
<glyph unicode="&#xd2;" horiz-adv-x="834" d="M51 354q0 163 102.5 267.5t263.5 104.5t263.5 -104.5t102.5 -267.5t-102.5 -267.5t-263.5 -104.5t-263.5 104.5t-102.5 267.5zM117 354q0 -135 81 -222q83 -90 219 -90t219 90q81 87 81 222t-82 223.5t-218 88.5t-218 -88.5t-82 -223.5zM371 896l104 -144h-50l-134 144 h80z" />
<glyph unicode="&#xd3;" horiz-adv-x="834" d="M51 354q0 163 102.5 267.5t263.5 104.5t263.5 -104.5t102.5 -267.5t-102.5 -267.5t-263.5 -104.5t-263.5 104.5t-102.5 267.5zM117 354q0 -135 81 -222q83 -90 219 -90t219 90q81 87 81 222t-82 223.5t-218 88.5t-218 -88.5t-82 -223.5zM359 752l104 144h80l-134 -144 h-50z" />
<glyph unicode="&#xd4;" horiz-adv-x="834" d="M51 354q0 163 102.5 267.5t263.5 104.5t263.5 -104.5t102.5 -267.5t-102.5 -267.5t-263.5 -104.5t-263.5 104.5t-102.5 267.5zM117 354q0 -135 81 -222q83 -90 219 -90t219 90q81 87 81 222t-82 223.5t-218 88.5t-218 -88.5t-82 -223.5zM274 752l108 144h70l108 -144h-65 l-81 108l-81 -108h-59z" />
<glyph unicode="&#xd5;" horiz-adv-x="834" d="M51 354q0 163 102.5 267.5t263.5 104.5t263.5 -104.5t102.5 -267.5t-102.5 -267.5t-263.5 -104.5t-263.5 104.5t-102.5 267.5zM117 354q0 -135 81 -222q83 -90 219 -90t219 90q81 87 81 222t-82 223.5t-218 88.5t-218 -88.5t-82 -223.5zM297 769v0h-36q5 39 27 68 q26 34 63 34q27 0 73 -24t65 -24q38 0 48 48h36q-5 -42 -24 -69q-23 -33 -60 -33q-26 0 -74.5 24t-66.5 24q-39 0 -51 -48z" />
<glyph unicode="&#xd6;" horiz-adv-x="834" d="M51 354q0 163 102.5 267.5t263.5 104.5t263.5 -104.5t102.5 -267.5t-102.5 -267.5t-263.5 -104.5t-263.5 104.5t-102.5 267.5zM117 354q0 -135 81 -222q83 -90 219 -90t219 90q81 87 81 222t-82 223.5t-218 88.5t-218 -88.5t-82 -223.5zM274 840q0 20 14 34t34 14t34 -14 t14 -34t-14 -34t-34 -14t-34 14t-14 34zM464 840q0 20 14 34t34 14t34 -14t14 -34t-14 -34t-34 -14t-34 14t-14 34z" />
<glyph unicode="&#xd7;" horiz-adv-x="666" d="M136 535l198 -198l199 198l33 -34l-199 -198l198 -198l-34 -34l-197 199l-199 -199l-35 34l200 198l-198 198z" />
<glyph unicode="&#xd8;" horiz-adv-x="834" d="M68 15l76 82q-93 102 -93 257q0 163 102.5 267.5t263.5 104.5q137 0 235 -79l74 81l34 -31l-75 -81q98 -103 98 -262q0 -163 -102.5 -267.5t-263.5 -104.5q-142 0 -239 83l-75 -81zM188 144l421 457q-79 65 -192 65q-136 0 -218 -88.5t-82 -223.5q0 -127 71 -210z M642 569l-422 -458q78 -69 197 -69q136 0 219 90q81 87 81 222q0 131 -75 215z" />
<glyph unicode="&#xd9;" horiz-adv-x="684" d="M600 708v-437q0 -126 -57 -201q-66 -88 -201 -88t-201 88q-57 75 -57 201v437h66v-420q0 -246 192 -246t192 246v420h66zM296 896l104 -144h-50l-134 144h80z" />
<glyph unicode="&#xda;" horiz-adv-x="684" d="M600 708v-437q0 -126 -57 -201q-66 -88 -201 -88t-201 88q-57 75 -57 201v437h66v-420q0 -246 192 -246t192 246v420h66zM284 752l104 144h80l-134 -144h-50z" />
<glyph unicode="&#xdb;" horiz-adv-x="684" d="M600 708v-437q0 -126 -57 -201q-66 -88 -201 -88t-201 88q-57 75 -57 201v437h66v-420q0 -246 192 -246t192 246v420h66zM199 752l108 144h70l108 -144h-65l-81 108l-81 -108h-59z" />
<glyph unicode="&#xdc;" horiz-adv-x="684" d="M600 708v-437q0 -126 -57 -201q-66 -88 -201 -88t-201 88q-57 75 -57 201v437h66v-420q0 -246 192 -246t192 246v420h66zM199 840q0 20 14 34t34 14t34 -14t14 -34t-14 -34t-34 -14t-34 14t-14 34zM389 840q0 20 14 34t34 14t34 -14t14 -34t-14 -34t-34 -14t-34 14 t-14 34z" />
<glyph unicode="&#xdd;" horiz-adv-x="574" d="M254 0v305l-260 403h79l214 -336l219 336h74l-260 -403v-305h-66zM229 752l104 144h80l-134 -144h-50z" />
<glyph unicode="&#xde;" horiz-adv-x="574" d="M97 0v708h65v-156h139q92 0 152 -38q76 -49 76 -149q0 -91 -65 -140q-58 -45 -148 -45h-153v-180h-66zM163 492v-252h150q64 0 103 28q47 32 47 97q0 64 -48 98q-42 29 -106 29h-146z" />
<glyph unicode="&#xdf;" horiz-adv-x="593" d="M266 404v54h15q60 0 97.5 35t37.5 94q0 61 -36 94t-94 33q-146 0 -146 -189v-525h-60v534q0 105 55.5 169.5t155.5 64.5q81 0 132 -46q53 -49 53 -133q0 -58 -27 -99t-72 -55v-2q159 -30 159 -212q0 -106 -68.5 -166.5t-178.5 -60.5q-27 0 -47 5v58q22 -9 53 -9 q81 0 131 47t50 125q0 89 -57 139q-52 45 -132 45h-21z" />
<glyph unicode="&#xe0;" horiz-adv-x="519" d="M439 307v-113q0 -126 9 -194h-56q-6 35 -6 75h-2q-50 -87 -162 -87q-67 0 -111 32q-52 37 -52 105q0 155 256 155h70v28q0 112 -130 112q-80 0 -141 -52l-35 41q68 65 176 65q184 0 184 -167zM385 232h-66q-85 0 -137 -22q-63 -27 -63 -82q0 -40 34 -64q30 -22 71 -22 q161 0 161 159v31zM214 708l104 -144h-50l-134 144h80z" />
<glyph unicode="&#xe1;" horiz-adv-x="519" d="M439 307v-113q0 -126 9 -194h-56q-6 35 -6 75h-2q-50 -87 -162 -87q-67 0 -111 32q-52 37 -52 105q0 155 256 155h70v28q0 112 -130 112q-80 0 -141 -52l-35 41q68 65 176 65q184 0 184 -167zM385 232h-66q-85 0 -137 -22q-63 -27 -63 -82q0 -40 34 -64q30 -22 71 -22 q161 0 161 159v31zM202 564l104 144h80l-134 -144h-50z" />
<glyph unicode="&#xe2;" horiz-adv-x="519" d="M439 307v-113q0 -126 9 -194h-56q-6 35 -6 75h-2q-50 -87 -162 -87q-67 0 -111 32q-52 37 -52 105q0 155 256 155h70v28q0 112 -130 112q-80 0 -141 -52l-35 41q68 65 176 65q184 0 184 -167zM385 232h-66q-85 0 -137 -22q-63 -27 -63 -82q0 -40 34 -64q30 -22 71 -22 q161 0 161 159v31zM117 564l108 144h70l108 -144h-65l-81 108l-81 -108h-59z" />
<glyph unicode="&#xe3;" horiz-adv-x="519" d="M439 307v-113q0 -126 9 -194h-56q-6 35 -6 75h-2q-50 -87 -162 -87q-67 0 -111 32q-52 37 -52 105q0 155 256 155h70v28q0 112 -130 112q-80 0 -141 -52l-35 41q68 65 176 65q184 0 184 -167zM385 232h-66q-85 0 -137 -22q-63 -27 -63 -82q0 -40 34 -64q30 -22 71 -22 q161 0 161 159v31zM140 581v0h-36q5 39 27 68q26 34 63 34q27 0 73 -24t65 -24q38 0 48 48h36q-5 -42 -24 -69q-23 -33 -60 -33q-26 0 -74.5 24t-66.5 24q-39 0 -51 -48z" />
<glyph unicode="&#xe4;" horiz-adv-x="519" d="M439 307v-113q0 -126 9 -194h-56q-6 35 -6 75h-2q-50 -87 -162 -87q-67 0 -111 32q-52 37 -52 105q0 155 256 155h70v28q0 112 -130 112q-80 0 -141 -52l-35 41q68 65 176 65q184 0 184 -167zM385 232h-66q-85 0 -137 -22q-63 -27 -63 -82q0 -40 34 -64q30 -22 71 -22 q161 0 161 159v31zM117 652q0 20 14 34t34 14t34 -14t14 -34t-14 -34t-34 -14t-34 14t-14 34zM307 652q0 20 14 34t34 14t34 -14t14 -34t-14 -34t-34 -14t-34 14t-14 34z" />
<glyph unicode="&#xe5;" horiz-adv-x="519" d="M439 307v-113q0 -126 9 -194h-56q-6 35 -6 75h-2q-50 -87 -162 -87q-67 0 -111 32q-52 37 -52 105q0 155 256 155h70v28q0 112 -130 112q-80 0 -141 -52l-35 41q68 65 176 65q184 0 184 -167zM385 232h-66q-85 0 -137 -22q-63 -27 -63 -82q0 -40 34 -64q30 -22 71 -22 q161 0 161 159v31zM167 649q0 39 27.5 67t66.5 28q38 0 65 -29t27 -67q0 -37 -27 -65.5t-65 -28.5q-39 0 -66.5 28t-27.5 67zM317 649q0 25 -16 42t-41 17q-24 0 -40.5 -17.5t-16.5 -42.5t16.5 -41.5t40.5 -16.5q25 0 41 17t16 42z" />
<glyph unicode="&#xe6;" horiz-adv-x="852" d="M392 270v9q0 141 -142 141q-80 0 -141 -52l-35 41q68 65 176 65q134 0 180 -96q25 45 73 72q46 24 96 24q91 0 147 -52q62 -59 62 -171v-35h-356q-3 -74 39.5 -124t120.5 -50q86 0 133 74l47 -34q-39 -51 -82.5 -72.5t-107.5 -21.5q-135 0 -182 114q-54 -114 -203 -114 q-67 0 -111 32q-52 37 -52 105q0 58 41 95q56 50 182 50h115zM392 216h-117q-92 0 -133 -33q-28 -23 -28 -55q0 -40 34 -64q30 -22 71 -22q88 0 133 51q40 46 40 123zM452 270h296q-1 67 -36 106q-38 44 -111 44q-67 0 -108 -43.5t-41 -106.5z" />
<glyph unicode="&#xe7;" horiz-adv-x="481" d="M421 106l46 -38q-67 -80 -170 -80q-106 0 -174.5 68.5t-68.5 174.5t68.5 174.5t174.5 68.5q101 0 172 -80l-48 -36q-57 62 -124 62q-83 0 -133 -54.5t-50 -134.5t49 -133q51 -56 134 -56q72 0 124 64zM292 0l-47 -64l2 -2q13 7 31 7q35 0 59 -19t24 -53q0 -42 -36 -65 q-32 -20 -76 -20q-50 0 -95 21l14 32q33 -17 76 -17q23 0 41 10q22 12 22 33q0 42 -56 42q-23 0 -44 -8l-16 15l63 88h38z" />
<glyph unicode="&#xe8;" horiz-adv-x="556" d="M444 124l44 -37q-66 -99 -200 -99q-105 0 -169.5 68t-64.5 176q0 104 65 173t166 69t162 -68q55 -61 55 -148v-42h-388q0 -56 35 -106q48 -68 140 -68q46 0 89.5 22.5t65.5 59.5zM114 270h328q0 62 -47 106t-113 44q-84 0 -133 -66q-35 -47 -35 -84zM232 708l104 -144 h-50l-134 144h80z" />
<glyph unicode="&#xe9;" horiz-adv-x="556" d="M444 124l44 -37q-66 -99 -200 -99q-105 0 -169.5 68t-64.5 176q0 104 65 173t166 69t162 -68q55 -61 55 -148v-42h-388q0 -56 35 -106q48 -68 140 -68q46 0 89.5 22.5t65.5 59.5zM114 270h328q0 62 -47 106t-113 44q-84 0 -133 -66q-35 -47 -35 -84zM220 564l104 144h80 l-134 -144h-50z" />
<glyph unicode="&#xea;" horiz-adv-x="556" d="M444 124l44 -37q-66 -99 -200 -99q-105 0 -169.5 68t-64.5 176q0 104 65 173t166 69t162 -68q55 -61 55 -148v-42h-388q0 -56 35 -106q48 -68 140 -68q46 0 89.5 22.5t65.5 59.5zM114 270h328q0 62 -47 106t-113 44q-84 0 -133 -66q-35 -47 -35 -84zM135 564l108 144h70 l108 -144h-65l-81 108l-81 -108h-59z" />
<glyph unicode="&#xeb;" horiz-adv-x="556" d="M444 124l44 -37q-66 -99 -200 -99q-105 0 -169.5 68t-64.5 176q0 104 65 173t166 69t162 -68q55 -61 55 -148v-42h-388q0 -56 35 -106q48 -68 140 -68q46 0 89.5 22.5t65.5 59.5zM114 270h328q0 62 -47 106t-113 44q-84 0 -133 -66q-35 -47 -35 -84zM135 652q0 20 14 34 t34 14t34 -14t14 -34t-14 -34t-34 -14t-34 14t-14 34zM325 652q0 20 14 34t34 14t34 -14t14 -34t-14 -34t-34 -14t-34 14t-14 34z" />
<glyph unicode="&#xec;" horiz-adv-x="240" d="M90 0v462h60v-462h-60zM74 708l104 -144h-50l-134 144h80z" />
<glyph unicode="&#xed;" horiz-adv-x="240" d="M90 0v462h60v-462h-60zM62 564l104 144h80l-134 -144h-50z" />
<glyph unicode="&#xee;" horiz-adv-x="240" d="M90 0v462h60v-462h-60zM-23 564l108 144h70l108 -144h-65l-81 108l-81 -108h-59z" />
<glyph unicode="&#xef;" horiz-adv-x="240" d="M90 0v462h60v-462h-60zM-23 652q0 20 14 34t34 14t34 -14t14 -34t-14 -34t-34 -14t-34 14t-14 34zM167 652q0 20 14 34t34 14t34 -14t14 -34t-14 -34t-34 -14t-34 14t-14 34z" />
<glyph unicode="&#xf0;" horiz-adv-x="594" d="M149 604l104 56q-56 51 -94 78l52 30q56 -41 95 -80l104 56l36 -30l-106 -57q200 -183 200 -401q0 -123 -67.5 -195.5t-175.5 -72.5q-106 0 -174.5 68.5t-68.5 174.5t68.5 174.5t174.5 68.5q88 0 149 -55l2 2q-71 126 -161 207l-107 -57zM114 231q0 -80 49 -133 q51 -56 134 -56t134 56q49 53 49 133t-50 134.5t-133 54.5t-133 -54.5t-50 -134.5z" />
<glyph unicode="&#xf1;" horiz-adv-x="556" d="M80 0v332q0 18 -2.5 68.5t-2.5 61.5h60q1 -36 4 -81h3q19 40 61.5 66.5t96.5 26.5q176 0 176 -199v-275h-60v272q0 148 -116 148q-70 0 -113 -47q-47 -51 -47 -142v-231h-60zM158 581v0h-36q5 39 27 68q26 34 63 34q27 0 73 -24t65 -24q38 0 48 48h36q-5 -42 -24 -69 q-23 -33 -60 -33q-26 0 -74.5 24t-66.5 24q-39 0 -51 -48z" />
<glyph unicode="&#xf2;" horiz-adv-x="594" d="M54 231q0 106 68.5 174.5t174.5 68.5t174.5 -68.5t68.5 -174.5t-68.5 -174.5t-174.5 -68.5t-174.5 68.5t-68.5 174.5zM114 231q0 -80 49 -133q51 -56 134 -56t134 56q49 53 49 133t-50 134.5t-133 54.5t-133 -54.5t-50 -134.5zM251 708l104 -144h-50l-134 144h80z" />
<glyph unicode="&#xf3;" horiz-adv-x="594" d="M54 231q0 106 68.5 174.5t174.5 68.5t174.5 -68.5t68.5 -174.5t-68.5 -174.5t-174.5 -68.5t-174.5 68.5t-68.5 174.5zM114 231q0 -80 49 -133q51 -56 134 -56t134 56q49 53 49 133t-50 134.5t-133 54.5t-133 -54.5t-50 -134.5zM239 564l104 144h80l-134 -144h-50z" />
<glyph unicode="&#xf4;" horiz-adv-x="594" d="M54 231q0 106 68.5 174.5t174.5 68.5t174.5 -68.5t68.5 -174.5t-68.5 -174.5t-174.5 -68.5t-174.5 68.5t-68.5 174.5zM114 231q0 -80 49 -133q51 -56 134 -56t134 56q49 53 49 133t-50 134.5t-133 54.5t-133 -54.5t-50 -134.5zM154 564l108 144h70l108 -144h-65l-81 108 l-81 -108h-59z" />
<glyph unicode="&#xf5;" horiz-adv-x="594" d="M54 231q0 106 68.5 174.5t174.5 68.5t174.5 -68.5t68.5 -174.5t-68.5 -174.5t-174.5 -68.5t-174.5 68.5t-68.5 174.5zM114 231q0 -80 49 -133q51 -56 134 -56t134 56q49 53 49 133t-50 134.5t-133 54.5t-133 -54.5t-50 -134.5zM177 581v0h-36q5 39 27 68q26 34 63 34 q27 0 73 -24t65 -24q38 0 48 48h36q-5 -42 -24 -69q-23 -33 -60 -33q-26 0 -74.5 24t-66.5 24q-39 0 -51 -48z" />
<glyph unicode="&#xf6;" horiz-adv-x="594" d="M54 231q0 106 68.5 174.5t174.5 68.5t174.5 -68.5t68.5 -174.5t-68.5 -174.5t-174.5 -68.5t-174.5 68.5t-68.5 174.5zM114 231q0 -80 49 -133q51 -56 134 -56t134 56q49 53 49 133t-50 134.5t-133 54.5t-133 -54.5t-50 -134.5zM154 652q0 20 14 34t34 14t34 -14t14 -34 t-14 -34t-34 -14t-34 14t-14 34zM344 652q0 20 14 34t34 14t34 -14t14 -34t-14 -34t-34 -14t-34 14t-14 34z" />
<glyph unicode="&#xf7;" horiz-adv-x="666" d="M78 279v48h510v-48h-510zM282 457q0 21 15 36t36 15t36 -15t15 -36t-15 -36t-36 -15t-36 15t-15 36zM282 149q0 21 15 36t36 15t36 -15t15 -36t-15 -36t-36 -15t-36 15t-15 36z" />
<glyph unicode="&#xf8;" horiz-adv-x="594" d="M39 2l70 71q-55 64 -55 158q0 106 68.5 174.5t174.5 68.5q91 0 157 -53l69 70l32 -29l-71 -71q56 -64 56 -160q0 -106 -68.5 -174.5t-174.5 -68.5q-94 0 -158 54l-68 -69zM150 115l263 265q-48 40 -116 40q-83 0 -133 -54.5t-50 -134.5q0 -69 36 -116zM443 349l-263 -266 q46 -41 117 -41q83 0 134 56q49 53 49 133q0 72 -37 118z" />
<glyph unicode="&#xf9;" horiz-adv-x="556" d="M471 462v-332q0 -18 2.5 -68.5t2.5 -61.5h-60q-1 36 -4 81h-3q-19 -40 -60 -66q-44 -27 -98 -27q-176 0 -176 199v275h60v-272q0 -148 116 -148q70 0 113 47q47 51 47 142v231h60zM232 708l104 -144h-50l-134 144h80z" />
<glyph unicode="&#xfa;" horiz-adv-x="556" d="M471 462v-332q0 -18 2.5 -68.5t2.5 -61.5h-60q-1 36 -4 81h-3q-19 -40 -60 -66q-44 -27 -98 -27q-176 0 -176 199v275h60v-272q0 -148 116 -148q70 0 113 47q47 51 47 142v231h60zM220 564l104 144h80l-134 -144h-50z" />
<glyph unicode="&#xfb;" horiz-adv-x="556" d="M471 462v-332q0 -18 2.5 -68.5t2.5 -61.5h-60q-1 36 -4 81h-3q-19 -40 -60 -66q-44 -27 -98 -27q-176 0 -176 199v275h60v-272q0 -148 116 -148q70 0 113 47q47 51 47 142v231h60zM135 564l108 144h70l108 -144h-65l-81 108l-81 -108h-59z" />
<glyph unicode="&#xfc;" horiz-adv-x="556" d="M471 462v-332q0 -18 2.5 -68.5t2.5 -61.5h-60q-1 36 -4 81h-3q-19 -40 -60 -66q-44 -27 -98 -27q-176 0 -176 199v275h60v-272q0 -148 116 -148q70 0 113 47q47 51 47 142v231h60zM135 652q0 20 14 34t34 14t34 -14t14 -34t-14 -34t-34 -14t-34 14t-14 34zM325 652 q0 20 14 34t34 14t34 -14t14 -34t-14 -34t-34 -14t-34 14t-14 34z" />
<glyph unicode="&#xfd;" horiz-adv-x="463" d="M448 462l-238 -605q-38 -97 -127 -97q-25 0 -59 9l6 56q37 -11 54 -11q47 0 77 77l42 107l-188 464h67l153 -389l149 389h64zM174 564l104 144h80l-134 -144h-50z" />
<glyph unicode="&#xfe;" horiz-adv-x="611" d="M67 -228v984h60v-375h2q26 45 81 71q48 22 104 22q106 0 174.5 -68.5t68.5 -174.5t-68.5 -174.5t-174.5 -68.5q-56 0 -104 23q-55 25 -81 70h-2v-309h-60zM121 231q0 -78 56 -133.5t137 -55.5q83 0 134 56q49 53 49 133t-50 134.5t-133 54.5q-81 0 -137 -55.5t-56 -133.5 z" />
<glyph unicode="&#xff;" horiz-adv-x="463" d="M448 462l-238 -605q-38 -97 -127 -97q-25 0 -59 9l6 56q37 -11 54 -11q47 0 77 77l42 107l-188 464h67l153 -389l149 389h64zM89 652q0 20 14 34t34 14t34 -14t14 -34t-14 -34t-34 -14t-34 14t-14 34zM279 652q0 20 14 34t34 14t34 -14t14 -34t-14 -34t-34 -14t-34 14 t-14 34z" />
<glyph unicode="&#x131;" horiz-adv-x="240" d="M90 0v462h60v-462h-60z" />
<glyph unicode="&#x141;" horiz-adv-x="500" d="M97 0v231l-72 -64v65l72 63v413h66v-358l216 189v-62l-216 -189v-228h330v-60h-396z" />
<glyph unicode="&#x142;" horiz-adv-x="240" d="M90 0v324l-84 -85v67l84 85v365h60v-305l84 86v-67l-84 -85v-385h-60z" />
<glyph unicode="&#x152;" horiz-adv-x="944" d="M581 336v-276h304v-60h-472q-147 0 -248 97q-106 101 -106 257q0 167 119 265q108 89 267 89h432v-60h-296v-252h279v-60h-279zM515 60v588h-78q-120 0 -208 -70q-104 -81 -104 -224q0 -148 110 -229q86 -65 196 -65h84z" />
<glyph unicode="&#x153;" horiz-adv-x="907" d="M507 270h296q-1 67 -36 106q-38 44 -111 44q-67 0 -108 -43.5t-41 -106.5zM863 216h-356q-3 -74 39.5 -124t120.5 -50q86 0 133 74l47 -34q-39 -51 -82.5 -72.5t-107.5 -21.5q-135 0 -182 114h-2q-59 -114 -199 -114q-99 0 -164.5 69t-65.5 174t65.5 174t164.5 69 q138 0 199 -115q49 115 181 115q91 0 147 -52q62 -59 62 -171v-35zM104 231q0 -77 47.5 -133t124.5 -56t125 56q46 53 46 133t-47 134.5t-124 54.5t-124.5 -56t-47.5 -133z" />
<glyph unicode="&#x160;" horiz-adv-x="556" d="M53 89l63 42q53 -89 162 -89q68 0 113.5 38t45.5 101q0 81 -95 119l-175 65q-95 53 -95 167q0 90 69 144q63 50 158 50q125 0 193 -89l-57 -41q-50 70 -138 70q-68 0 -111 -33q-48 -37 -48 -101q0 -87 95 -127l175 -62q95 -50 95 -162q0 -92 -67 -147q-62 -52 -153 -52 q-154 0 -230 107zM417 896l-106 -144h-70l-109 144h62l83 -114l86 114h54z" />
<glyph unicode="&#x161;" horiz-adv-x="426" d="M28 82l53 36q18 -36 55 -56t79 -20t74 23.5t32 61.5q0 52 -71 73l-132 36q-71 30 -71 105q0 63 51 100q44 33 107 33q119 0 163 -87l-54 -32q-36 65 -109 65q-36 0 -65 -19q-33 -21 -33 -55q0 -50 71 -70l132 -34q71 -31 71 -111q0 -68 -48.5 -105.5t-118.5 -37.5 q-133 0 -186 94zM352 708l-106 -144h-70l-109 144h62l83 -114l86 114h54z" />
<glyph unicode="&#x178;" horiz-adv-x="574" d="M254 0v305l-260 403h79l214 -336l219 336h74l-260 -403v-305h-66zM144 840q0 20 14 34t34 14t34 -14t14 -34t-14 -34t-34 -14t-34 14t-14 34zM334 840q0 20 14 34t34 14t34 -14t14 -34t-14 -34t-34 -14t-34 14t-14 34z" />
<glyph unicode="&#x17d;" horiz-adv-x="556" d="M23 0v52l414 596h-408v60h493v-54l-417 -594h428v-60h-510zM417 896l-106 -144h-70l-109 144h62l83 -114l86 114h54z" />
<glyph unicode="&#x17e;" horiz-adv-x="426" d="M27 0v36l277 372h-263v54h346v-36l-276 -372h288v-54h-372zM352 708l-106 -144h-70l-109 144h62l83 -114l86 114h54z" />
<glyph unicode="&#x192;" d="M395 419v-48h-117l-72 -391q-23 -124 -143 -124q-50 0 -79 24l30 47q21 -17 53 -17q38 0 58 29q19 25 29 82l64 350h-108v48h117l29 154q28 147 143 147q49 0 90 -30l-32 -45q-30 21 -58 21q-66 0 -83 -90l-29 -157h108z" />
<glyph unicode="&#x2c6;" horiz-adv-x="240" d="M-23 564l108 144h70l108 -144h-65l-81 108l-81 -108h-59z" />
<glyph unicode="&#x2c7;" horiz-adv-x="240" d="M259 708l-106 -144h-70l-109 144h62l83 -114l86 114h54z" />
<glyph unicode="&#x2d8;" horiz-adv-x="240" d="M-24 708h42q12 -78 100 -78q87 0 104 78h42q-7 -59 -46.5 -92.5t-99.5 -33.5t-99.5 33.5t-42.5 92.5z" />
<glyph unicode="&#x2d9;" horiz-adv-x="240" d="M75 652q0 20 14 34t34 14t34 -14t14 -34t-14 -34t-34 -14t-34 14t-14 34z" />
<glyph unicode="&#x2da;" horiz-adv-x="240" d="M27 649q0 39 27.5 67t66.5 28q38 0 65 -29t27 -67q0 -37 -27 -65.5t-65 -28.5q-39 0 -66.5 28t-27.5 67zM177 649q0 25 -16 42t-41 17q-24 0 -40.5 -17.5t-16.5 -42.5t16.5 -41.5t40.5 -16.5q25 0 41 17t16 42z" />
<glyph unicode="&#x2db;" horiz-adv-x="240" d="M168 -145l19 -38q-36 -33 -85 -33q-41 0 -66.5 22t-25.5 60q0 65 88 134h45q-73 -55 -73 -121q0 -47 43 -47q34 0 55 23z" />
<glyph unicode="&#x2dc;" horiz-adv-x="240" d="M0 581v0h-36q5 39 27 68q26 34 63 34q27 0 73 -24t65 -24q38 0 48 48h36q-5 -42 -24 -69q-23 -33 -60 -33q-26 0 -74.5 24t-66.5 24q-39 0 -51 -48z" />
<glyph unicode="&#x2dd;" horiz-adv-x="240" d="M-11 564l104 144h80l-134 -144h-50zM135 564l104 144h80l-134 -144h-50z" />
<glyph unicode="&#x2010;" horiz-adv-x="333" d="M43 210v54h247v-54h-247z" />
<glyph unicode="&#x2013;" horiz-adv-x="500" d="M0 210v54h500v-54h-500z" />
<glyph unicode="&#x2014;" horiz-adv-x="1000" d="M0 210v54h1000v-54h-1000z" />
<glyph unicode="&#x2018;" horiz-adv-x="260" d="M198 708l-64 -228h-72l76 228h60z" />
<glyph unicode="&#x2019;" horiz-adv-x="260" d="M62 480l63 228h73l-77 -228h-59z" />
<glyph unicode="&#x201a;" horiz-adv-x="260" d="M62 -138l63 228h73l-77 -228h-59z" />
<glyph unicode="&#x201c;" d="M241 708l-63 -228h-73l77 228h59zM415 708l-63 -228h-73l77 228h59z" />
<glyph unicode="&#x201d;" d="M279 480l63 228h73l-77 -228h-59zM105 480l63 228h73l-77 -228h-59z" />
<glyph unicode="&#x201e;" d="M279 -138l63 228h73l-77 -228h-59zM105 -138l63 228h73l-77 -228h-59z" />
<glyph unicode="&#x2020;" d="M230 -126v587h-192v48h192v199h60v-199h192v-48h-192v-587h-60z" />
<glyph unicode="&#x2021;" d="M230 -126v199h-192v48h192v340h-192v48h192v199h60v-199h192v-48h-192v-340h192v-48h-192v-199h-60z" />
<glyph unicode="&#x2022;" horiz-adv-x="500" d="M73 354q0 74 52 125.5t125 51.5q74 0 125.5 -51.5t51.5 -125.5q0 -73 -51.5 -125t-125.5 -52q-73 0 -125 52t-52 125z" />
<glyph unicode="&#x2026;" horiz-adv-x="1000" d="M119 42q0 20 14 34t34 14t34 -14t14 -34t-14 -34t-34 -14t-34 14t-14 34zM452 42q0 20 14 34t34 14t34 -14t14 -34t-14 -34t-34 -14t-34 14t-14 34zM785 42q0 20 14 34t34 14t34 -14t14 -34t-14 -34t-34 -14t-34 14t-14 34z" />
<glyph unicode="&#x2030;" horiz-adv-x="981" d="M66 -6l456 748l46 -28l-457 -748zM306 141q0 63 45 108t108 45t108 -45t45 -108t-45 -108t-108 -45t-108 45t-45 108zM354 141q0 -43 31 -74t74 -31q44 0 74.5 31t30.5 74q0 44 -30.5 74.5t-74.5 30.5q-43 0 -74 -30.5t-31 -74.5zM649 141q0 63 45 108t108 45t108 -45 t45 -108t-45 -108t-108 -45t-108 45t-45 108zM697 141q0 -43 31 -74t74 -31q44 0 74.5 31t30.5 74q0 44 -30.5 74.5t-74.5 30.5q-43 0 -74 -30.5t-31 -74.5zM26 567q0 63 45 108t108 45t108 -45t45 -108t-45 -108t-108 -45t-108 45t-45 108zM74 567q0 -43 31 -74t74 -31 q44 0 74.5 31t30.5 74q0 44 -30.5 74.5t-74.5 30.5q-43 0 -74 -30.5t-31 -74.5z" />
<glyph unicode="&#x2039;" horiz-adv-x="315" d="M200 34l-137 203l137 203l42 -29l-116 -174l118 -176z" />
<glyph unicode="&#x203a;" horiz-adv-x="315" d="M115 440l137 -203l-137 -203l-42 29l116 174l-118 176z" />
<glyph unicode="&#x2044;" horiz-adv-x="168" d="M-167 -6l456 748l46 -28l-457 -748z" />
<glyph unicode="&#x2122;" horiz-adv-x="990" d="M217 296v364h-133v48h320v-48h-133v-364h-54zM478 296v412h86l130 -328l129 328h83v-412h-54v361h-2l-142 -361h-32l-142 361h-2v-361h-54z" />
<glyph unicode="&#xe000;" horiz-adv-x="460" d="M0 460h460v-460h-460v460z" />
<glyph unicode="&#xf001;" horiz-adv-x="519" d="M369 0v462h60v-462h-60zM354 645q0 19 13 32t32 13t32 -13t13 -32t-13 -32t-32 -13t-32 13t-13 32zM114 0v408h-96v54h96v151q0 81 47 122q37 33 91 33q42 0 69 -12l-12 -52q-20 10 -54 10q-81 0 -81 -123v-129h108v-54h-108v-408h-60z" />
<glyph unicode="&#xf002;" horiz-adv-x="519" d="M114 0v408h-96v54h96v151q0 81 47 122q37 33 91 33q42 0 69 -12l-12 -52q-20 10 -54 10q-81 0 -81 -123v-129h108v-54h-108v-408h-60zM369 0v756h60v-756h-60z" />
<glyph horiz-adv-x="260" />
</font>
</defs>
</svg>
